<svg width="1024" height="1024" viewBox="0 0 1024 1024" fill="none" xmlns="http://www.w3.org/2000/svg">
<path d="M1024 512C1024 794.77 794.77 1024 512 1024C229.23 1024 0 794.77 0 512C0 229.23 229.23 0 512 0C794.77 0 1024 229.23 1024 512Z" fill="#D9D9D9"/>
<circle cx="512" cy="424.115" r="76.8993" fill="#434343"/>
<path d="M512 867.934C464.542 867.934 421.478 859.585 382.809 842.886C345.019 826.188 312.501 802.459 285.257 771.7C258.891 740.061 238.678 702.71 224.616 659.647C210.555 615.704 203.524 566.489 203.524 512C203.524 458.39 210.555 409.614 224.616 365.672C238.678 321.729 258.891 284.378 285.257 253.618C312.501 221.98 345.019 197.812 382.809 181.114C421.478 164.415 464.542 156.066 512 156.066C559.458 156.066 602.082 164.415 639.873 181.114C678.542 197.812 711.059 221.98 737.425 253.618C764.669 284.378 785.322 321.729 799.383 365.672C813.445 409.614 820.476 458.39 820.476 512C820.476 566.489 813.445 615.704 799.383 659.647C785.322 702.71 764.669 740.061 737.425 771.7C711.059 802.459 678.542 826.188 639.873 842.886C602.082 859.585 559.458 867.934 512 867.934ZM512 776.973C570.883 776.973 618.341 759.396 654.373 724.242C690.406 689.088 708.423 634.599 708.423 560.776V463.224C708.423 389.401 690.406 334.912 654.373 299.758C618.341 264.604 570.883 247.027 512 247.027C453.117 247.027 405.659 264.604 369.626 299.758C333.594 334.912 315.577 389.401 315.577 463.224V560.776C315.577 634.599 333.594 689.088 369.626 724.242C405.659 759.396 453.117 776.973 512 776.973Z" fill="#434343"/>
<path d="M512.001 347.216L578.598 676.784H445.405L512.001 347.216Z" fill="#434343"/>
<path d="M1024 512C1024 794.77 794.77 1024 512 1024C229.23 1024 0 794.77 0 512C0 229.23 229.23 0 512 0C794.77 0 1024 229.23 1024 512Z" fill="url(#paint0_linear_1_23)" fill-opacity="0.3"/>
<defs>
<linearGradient id="paint0_linear_1_23" x1="512" y1="1010" x2="512" y2="-1.23883e-05" gradientUnits="userSpaceOnUse">
<stop offset="0.151042"/>
<stop offset="0.473958" stop-opacity="0.811688"/>
<stop offset="1" stop-opacity="0"/>
</linearGradient>
</defs>
</svg>
